<?xml version="1.0" encoding="UTF-8"?>
<!DOCTYPE svg PUBLIC "-//W3C//DTD SVG 1.1//EN" "http://www.w3.org/Graphics/SVG/1.1/DTD/svg11.dtd">
<!-- Creator: CorelDRAW -->
<svg xmlns="http://www.w3.org/2000/svg" xmlns:xlink="http://www.w3.org/1999/xlink" xmlns:svg="http://www.w3.org/2000/svg" xmlns:dc="http://purl.org/dc/elements/1.1/" xmlns:cc="http://web.resource.org/cc/" xmlns:rdf="http://www.w3.org/1999/02/22-rdf-syntax-ns#" xml:space="preserve" width="4in" height="6in" style="shape-rendering:geometricPrecision; text-rendering:geometricPrecision; image-rendering:optimizeQuality; fill-rule:evenodd; clip-rule:evenodd" viewBox="0 0 4 6">
 <defs>
  <style type="text/css">
   <![CDATA[
    .str0 {stroke:#1F1A17;stroke-width:0.003}
    .str3 {stroke:white;stroke-width:0.003}
    .str4 {stroke:white;stroke-width:0.0138898;stroke-opacity:0.321569}
    .str2 {stroke:white;stroke-width:0.0138898;stroke-opacity:0.431373}
    .str1 {stroke:white;stroke-width:0.0138898}
    .fil1 {fill:url(#id3)}
    .fil3 {fill:url(#id4)}
    .fil0 {fill:url(#id5)}
    .fil4 {fill:url(#id6);fill-opacity:0.321569}
    .fil2 {fill:url(#id7);fill-opacity:0.431373}
   ]]>
  </style>
   <mask id="id0">
  <linearGradient id="id1" gradientUnits="userSpaceOnUse" x1="0.236378" y1="1.85479" x2="3.67126" y2="5.57385">
   <stop offset="0" style="stop-opacity:0.788235; stop-color:white"/>
   <stop offset="1" style="stop-opacity:0; stop-color:white"/>
  </linearGradient>
    <rect style="fill:url(#id1)" x="-0.053126" y="1.45248" width="4.01389" height="4.52367"/>
   </mask>
   <mask id="id2">
    <path fill="black" d="M2.33291 2.63344 L1.57962 -0.138862 L1.40354 -0.0849055 L2.33291 2.63344"/>
    <path fill="white" d="M2.33291 2.63344 L3.0862 5.40575 L3.26228 5.3518 L2.33291 2.63344"/>
    <path fill="#060606" d="M2.33291 2.63344 L1.40354 -0.0849055 L1.23129 -0.0197756 L2.33291 2.63344"/>
    <path fill="#FAFAFA" d="M2.33291 2.63344 L3.26228 5.3518 L3.43453 5.28667 L2.33291 2.63344"/>
    <path fill="#0B0B0B" d="M2.33291 2.63344 L1.23129 -0.0197756 L1.06356 0.0562598 L2.33291 2.63344"/>
    <path fill="whitesmoke" d="M2.33291 2.63344 L3.43453 5.28667 L3.60226 5.21063 L2.33291 2.63344"/>
    <path fill="#101010" d="M2.33291 2.63344 L1.06356 0.0562598 L0.901047 0.142882 L2.33291 2.63344"/>
    <path fill="#F0F0F0" d="M2.33291 2.63344 L3.60226 5.21063 L3.76477 5.12401 L2.33291 2.63344"/>
    <path fill="#151515" d="M2.33291 2.63344 L0.901047 0.142882 L0.744417 0.239736 L2.33291 2.63344"/>
    <path fill="#EBEBEB" d="M2.33291 2.63344 L3.76477 5.12401 L3.9214 5.02715 L2.33291 2.63344"/>
    <path fill="#1B1B1B" d="M2.33291 2.63344 L0.744417 0.239736 L0.594315 0.346433 L2.33291 2.63344"/>
    <path fill="#E5E5E5" d="M2.33291 2.63344 L3.9214 5.02715 L4.0715 4.92046 L2.33291 2.63344"/>
    <path fill="#202020" d="M2.33291 2.63344 L0.594315 0.346433 L0.451358 0.462524 L2.33291 2.63344"/>
    <path fill="#E0E0E0" d="M2.33291 2.63344 L4.0715 4.92046 L4.21446 4.80437 L2.33291 2.63344"/>
    <path fill="#252525" d="M2.33291 2.63344 L0.451358 0.462524 L0.316134 0.587535 L2.33291 2.63344"/>
    <path fill="#DBDBDB" d="M2.33291 2.63344 L4.21446 4.80437 L4.34969 4.67935 L2.33291 2.63344"/>
    <path fill="#2A2A2A" d="M2.33291 2.63344 L0.316134 0.587535 L0.189193 0.720953 L2.33291 2.63344"/>
    <path fill="#D6D6D6" d="M2.33291 2.63344 L4.34969 4.67935 L4.47663 4.54594 L2.33291 2.63344"/>
    <path fill="#2F2F2F" d="M2.33291 2.63344 L0.189193 0.720953 L0.0710669 0.862232 L2.33291 2.63344"/>
    <path fill="#D1D1D1" d="M2.33291 2.63344 L4.47663 4.54594 L4.59475 4.40466 L2.33291 2.63344"/>
    <path fill="#353535" d="M2.33291 2.63344 L0.0710669 0.862232 L-0.0377717 1.01079 L2.33291 2.63344"/>
    <path fill="#CBCBCB" d="M2.33291 2.63344 L4.59475 4.40466 L4.70359 4.2561 L2.33291 2.63344"/>
    <path fill="#3A3A3A" d="M2.33291 2.63344 L-0.0377717 1.01079 L-0.136862 1.16601 L2.33291 2.63344"/>
    <path fill="#C6C6C6" d="M2.33291 2.63344 L4.70359 4.2561 L4.80268 4.10088 L2.33291 2.63344"/>
    <path fill="#3F3F3F" d="M2.33291 2.63344 L-0.136862 1.16601 L-0.225807 1.32726 L2.33291 2.63344"/>
    <path fill="#C1C1C1" d="M2.33291 2.63344 L4.80268 4.10088 L4.89163 3.93963 L2.33291 2.63344"/>
    <path fill="#444444" d="M2.33291 2.63344 L-0.225807 1.32726 L-0.304236 1.49389 L2.33291 2.63344"/>
    <path fill="#BCBCBC" d="M2.33291 2.63344 L4.89163 3.93963 L4.97006 3.773 L2.33291 2.63344"/>
    <path fill="#494949" d="M2.33291 2.63344 L-0.304236 1.49389 L-0.371831 1.66519 L2.33291 2.63344"/>
    <path fill="#B7B7B7" d="M2.33291 2.63344 L4.97006 3.773 L5.03765 3.6017 L2.33291 2.63344"/>
    <path fill="#4F4F4F" d="M2.33291 2.63344 L-0.371831 1.66519 L-0.428311 1.84047 L2.33291 2.63344"/>
    <path fill="#B1B1B1" d="M2.33291 2.63344 L5.03765 3.6017 L5.09413 3.42642 L2.33291 2.63344"/>
    <path fill="#545454" d="M2.33291 2.63344 L-0.428311 1.84047 L-0.473445 2.01902 L2.33291 2.63344"/>
    <path fill="#ACACAC" d="M2.33291 2.63344 L5.09413 3.42642 L5.13926 3.24787 L2.33291 2.63344"/>
    <path fill="#595959" d="M2.33291 2.63344 L-0.473445 2.01902 L-0.507043 2.20008 L2.33291 2.63344"/>
    <path fill="#A7A7A7" d="M2.33291 2.63344 L5.13926 3.24787 L5.17286 3.06681 L2.33291 2.63344"/>
    <path fill="#5E5E5E" d="M2.33291 2.63344 L-0.507043 2.20008 L-0.528976 2.38293 L2.33291 2.63344"/>
    <path fill="#A2A2A2" d="M2.33291 2.63344 L5.17286 3.06681 L5.1948 2.88396 L2.33291 2.63344"/>
    <path fill="#636363" d="M2.33291 2.63344 L-0.528976 2.38293 L-0.539146 2.5668 L2.33291 2.63344"/>
    <path fill="#9D9D9D" d="M2.33291 2.63344 L5.1948 2.88396 L5.20496 2.70009 L2.33291 2.63344"/>
    <path fill="dimgray" d="M2.33291 2.63344 L-0.539146 2.5668 L-0.537516 2.75095 L2.33291 2.63344"/>
    <path fill="#979797" d="M2.33291 2.63344 L5.20496 2.70009 L5.20333 2.51594 L2.33291 2.63344"/>
    <path fill="#6E6E6E" d="M2.33291 2.63344 L-0.537516 2.75095 L-0.524087 2.93462 L2.33291 2.63344"/>
    <path fill="#929292" d="M2.33291 2.63344 L5.20333 2.51594 L5.18991 2.33227 L2.33291 2.63344"/>
    <path fill="#737373" d="M2.33291 2.63344 L-0.524087 2.93462 L-0.498921 3.11705 L2.33291 2.63344"/>
    <path fill="#8D8D8D" d="M2.33291 2.63344 L5.18991 2.33227 L5.16474 2.14984 L2.33291 2.63344"/>
    <path fill="#787878" d="M2.33291 2.63344 L-0.498921 3.11705 L-0.462118 3.29749 L2.33291 2.63344"/>
    <path fill="#888888" d="M2.33291 2.63344 L5.16474 2.14984 L5.12794 1.9694 L2.33291 2.63344"/>
    <path fill="#7D7D7D" d="M2.33291 2.63344 L-0.462118 3.29749 L-0.413831 3.4752 L2.33291 2.63344"/>
    <path fill="#838383" d="M2.33291 2.63344 L5.12794 1.9694 L5.07965 1.79169 L2.33291 2.63344"/>
    <path fill="#838383" d="M2.33291 2.63344 L-0.413831 3.4752 L-0.354256 3.64946 L2.33291 2.63344"/>
    <path fill="#7D7D7D" d="M2.33291 2.63344 L5.07965 1.79169 L5.02007 1.61743 L2.33291 2.63344"/>
    <path fill="#888888" d="M2.33291 2.63344 L-0.354256 3.64946 L-0.283638 3.81954 L2.33291 2.63344"/>
    <path fill="#787878" d="M2.33291 2.63344 L5.02007 1.61743 L4.94946 1.44735 L2.33291 2.63344"/>
    <path fill="#8D8D8D" d="M2.33291 2.63344 L-0.283638 3.81954 L-0.202268 3.98474 L2.33291 2.63344"/>
    <path fill="#737373" d="M2.33291 2.63344 L4.94946 1.44735 L4.86809 1.28215 L2.33291 2.63344"/>
    <path fill="#929292" d="M2.33291 2.63344 L-0.202268 3.98474 L-0.11048 4.1444 L2.33291 2.63344"/>
    <path fill="#6E6E6E" d="M2.33291 2.63344 L4.86809 1.28215 L4.7763 1.12249 L2.33291 2.63344"/>
    <path fill="#979797" d="M2.33291 2.63344 L-0.11048 4.1444 L-0.00865354 4.29784 L2.33291 2.63344"/>
    <path fill="dimgray" d="M2.33291 2.63344 L4.7763 1.12249 L4.67447 0.969047 L2.33291 2.63344"/>
    <path fill="#9D9D9D" d="M2.33291 2.63344 L-0.00865354 4.29784 L0.102795 4.44445 L2.33291 2.63344"/>
    <path fill="#636363" d="M2.33291 2.63344 L4.67447 0.969047 L4.56302 0.822441 L2.33291 2.63344"/>
    <path fill="#A2A2A2" d="M2.33291 2.63344 L0.102795 4.44445 L0.223409 4.58361 L2.33291 2.63344"/>
    <path fill="#5E5E5E" d="M2.33291 2.63344 L4.56302 0.822441 L4.44241 0.68328 L2.33291 2.63344"/>
    <path fill="#A7A7A7" d="M2.33291 2.63344 L0.223409 4.58361 L0.352689 4.71476 L2.33291 2.63344"/>
    <path fill="#595959" d="M2.33291 2.63344 L4.44241 0.68328 L4.31313 0.55213 L2.33291 2.63344"/>
    <path fill="#ACACAC" d="M2.33291 2.63344 L0.352689 4.71476 L0.49011 4.83736 L2.33291 2.63344"/>
    <path fill="#545454" d="M2.33291 2.63344 L4.31313 0.55213 L4.17571 0.429531 L2.33291 2.63344"/>
    <path fill="#B1B1B1" d="M2.33291 2.63344 L0.49011 4.83736 L0.635102 4.9509 L2.33291 2.63344"/>
    <path fill="#4F4F4F" d="M2.33291 2.63344 L4.17571 0.429531 L4.03072 0.315992 L2.33291 2.63344"/>
    <path fill="#B7B7B7" d="M2.33291 2.63344 L0.635102 4.9509 L0.787071 5.05491 L2.33291 2.63344"/>
    <path fill="#494949" d="M2.33291 2.63344 L4.03072 0.315992 L3.87875 0.211976 L2.33291 2.63344"/>
    <path fill="#BCBCBC" d="M2.33291 2.63344 L0.787071 5.05491 L0.94539 5.14898 L2.33291 2.63344"/>
    <path fill="#444444" d="M2.33291 2.63344 L3.87875 0.211976 L3.72043 0.117909 L2.33291 2.63344"/>
    <path fill="#C1C1C1" d="M2.33291 2.63344 L0.94539 5.14898 L1.10941 5.23271 L2.33291 2.63344"/>
    <path fill="#3F3F3F" d="M2.33291 2.63344 L3.72043 0.117909 L3.55641 0.0341772 L2.33291 2.63344"/>
    <path fill="#C6C6C6" d="M2.33291 2.63344 L1.10941 5.23271 L1.27846 5.30576 L2.33291 2.63344"/>
    <path fill="#3A3A3A" d="M2.33291 2.63344 L3.55641 0.0341772 L3.38736 -0.038874 L2.33291 2.63344"/>
    <path fill="#CBCBCB" d="M2.33291 2.63344 L1.27846 5.30576 L1.45184 5.36783 L2.33291 2.63344"/>
    <path fill="#353535" d="M2.33291 2.63344 L3.38736 -0.038874 L3.21398 -0.100941 L2.33291 2.63344"/>
    <path fill="#D1D1D1" d="M2.33291 2.63344 L1.45184 5.36783 L1.62885 5.41866 L2.33291 2.63344"/>
    <path fill="#2F2F2F" d="M2.33291 2.63344 L3.21398 -0.100941 L3.03697 -0.151772 L2.33291 2.63344"/>
    <path fill="#D6D6D6" d="M2.33291 2.63344 L1.62885 5.41866 L1.80874 5.45805 L2.33291 2.63344"/>
    <path fill="#2A2A2A" d="M2.33291 2.63344 L3.03697 -0.151772 L2.85707 -0.191161 L2.33291 2.63344"/>
    <path fill="#DBDBDB" d="M2.33291 2.63344 L1.80874 5.45805 L1.99079 5.48583 L2.33291 2.63344"/>
    <path fill="#252525" d="M2.33291 2.63344 L2.85707 -0.191161 L2.67503 -0.218941 L2.33291 2.63344"/>
    <path fill="#E0E0E0" d="M2.33291 2.63344 L1.99079 5.48583 L2.17425 5.50189 L2.33291 2.63344"/>
    <path fill="#202020" d="M2.33291 2.63344 L2.67503 -0.218941 L2.49157 -0.235 L2.33291 2.63344"/>
    <path fill="#E5E5E5" d="M2.33291 2.63344 L2.17425 5.50189 L2.35835 5.50616 L2.33291 2.63344"/>
    <path fill="#1B1B1B" d="M2.33291 2.63344 L2.49157 -0.235 L2.30746 -0.239272 L2.33291 2.63344"/>
    <path fill="#EBEBEB" d="M2.33291 2.63344 L2.35835 5.50616 L2.54235 5.49863 L2.33291 2.63344"/>
    <path fill="#151515" d="M2.33291 2.63344 L2.30746 -0.239272 L2.12346 -0.23174 L2.33291 2.63344"/>
    <path fill="#F0F0F0" d="M2.33291 2.63344 L2.54235 5.49863 L2.7255 5.47932 L2.33291 2.63344"/>
    <path fill="#101010" d="M2.33291 2.63344 L2.12346 -0.23174 L1.94032 -0.212433 L2.33291 2.63344"/>
    <path fill="whitesmoke" d="M2.33291 2.63344 L2.7255 5.47932 L2.90703 5.44832 L2.33291 2.63344"/>
    <path fill="#0B0B0B" d="M2.33291 2.63344 L1.94032 -0.212433 L1.75879 -0.181433 L2.33291 2.63344"/>
    <path fill="#FAFAFA" d="M2.33291 2.63344 L2.90703 5.44832 L3.0862 5.40575 L2.33291 2.63344"/>
    <path fill="#060606" d="M2.33291 2.63344 L1.75879 -0.181433 L1.57962 -0.138862 L2.33291 2.63344"/>
   </mask>
  <linearGradient id="id3" gradientUnits="userSpaceOnUse" x1="1.95382" y1="1.45943" x2="1.95382" y2="5.96921">
   <stop offset="0" style="stop-color:#007CC3"/>
   <stop offset="1" style="stop-color:#341A63"/>
  </linearGradient>
  <linearGradient id="id4" gradientUnits="userSpaceOnUse" xlink:href="#id3" x1="2.33291" y1="0.315339" x2="2.33291" y2="4.95155">
  </linearGradient>
  <linearGradient id="id5" gradientUnits="userSpaceOnUse" xlink:href="#id3" x1="2" y1="0" x2="2" y2="6">
  </linearGradient>
  <linearGradient id="id6" gradientUnits="userSpaceOnUse" xlink:href="#id3" x1="2.05492" y1="2.46454" x2="2.05492" y2="6">
  </linearGradient>
  <linearGradient id="id7" gradientUnits="userSpaceOnUse" xlink:href="#id3" x1="2" y1="3.93701e-006" x2="2" y2="5.67181">
  </linearGradient>
 </defs>
 <g id="Layer_x0020_1">
  <metadata id="CorelCorpID_0Corel-Layer"/>
  <rect class="fil0 str0" width="4" height="6"/>
  <path class="fil1 str1" style="mask:url(#id0)" d="M3.95382 3.80472l0 1.83725c-0.0327323,0.111669 -0.071248,0.22087 -0.115228,0.32724l-0.910055 0c0.216315,-0.365016 0.340654,-0.790929 0.340654,-1.2459 0,-1.35169 -1.09618,-2.44794 -2.44793,-2.44794 -0.305461,0 -0.59778,0.0561299 -0.867437,0.158382l0 -0.857535c0.276248,-0.0759961 0.567067,-0.116787 0.867437,-0.116787 1.48335,0 2.73569,0.990087 3.13256,2.34529z"/>
  <path class="fil2 str2" d="M1.09952 0l2.18169 0c0.259976,0.103953 0.50161,0.243961 0.718791,0.413823l0 0.66565c-0.448087,-0.490681 -1.09293,-0.798591 -1.80963,-0.798591 -0.957846,0 -1.78739,0.549929 -2.19037,1.35116l0 -0.862173c0.299933,-0.334665 0.675327,-0.600252 1.09952,-0.769866zm2.90048 4.3831l0 0.665642c-0.499004,0.390319 -1.12714,0.623075 -1.80963,0.623075 -0.870106,0 -1.65194,-0.378252 -2.19037,-0.979102l0 -0.862181c0.40298,0.801236 1.23253,1.3512 2.19037,1.3512 0.716701,0 1.36154,-0.307941 1.80963,-0.79863z"/>
  <path class="fil3 str3" style="mask:url(#id2)" d="M4.027 0.577646l0 0.265433c-0.00914567,-0.00546063 -0.0182205,-0.0109803 -0.0274764,-0.0163268 -0.997614,-0.575969 -2.27374,-0.234028 -2.84971,0.763587 -0.575965,0.99761 -0.234035,2.27373 0.763575,2.8497 0.678346,0.391646 1.4854,0.35874 2.11361,-0.0159724l0 0.265382c-0.00564173,0.00292913 -0.0113228,0.00576378 -0.0169882,0.00864961 -0.0082874,0.00422047 -0.0165984,0.00839764 -0.0249331,0.0125157 -0.0064685,0.00319685 -0.012937,0.00639764 -0.019437,0.0095315 -0.0122008,0.00588583 -0.0244409,0.0116772 -0.0367362,0.0173425 -0.00629134,0.00289764 -0.0126142,0.00572441 -0.0189252,0.00856693 -0.00831496,0.00374409 -0.0166496,0.00743307 -0.0250039,0.0110787 -0.00650394,0.00283858 -0.0129961,0.00569685 -0.0195197,0.00847244 -0.0122953,0.00522835 -0.0246417,0.0103268 -0.0370157,0.0153425 -0.00682677,0.00276772 -0.0136732,0.0054685 -0.0205236,0.00817323 -0.00833465,0.00328346 -0.016689,0.00651575 -0.0250591,0.00970079 -0.00905118,0.00344488 -0.018122,0.00684252 -0.0272087,0.0101772 -0.00985039,0.00361417 -0.0197165,0.00717323 -0.0296102,0.0106535 -0.00702756,0.00247244 -0.0140709,0.00490157 -0.021122,0.00730315 -0.00918898,0.00313386 -0.0183976,0.0061811 -0.0276299,0.00920079 -0.00948819,0.00309843 -0.0190039,0.00614173 -0.0285315,0.00912205 -0.00916142,0.0028622 -0.0183346,0.00568504 -0.0275276,0.00844094 -0.00677559,0.00202362 -0.0135551,0.00404331 -0.0203504,0.00600787 -0.0123622,0.00357874 -0.0247598,0.00706693 -0.0371811,0.0104409 -0.00724409,0.00196457 -0.0145079,0.00385039 -0.0217677,0.00574409 -0.00887795,0.00231496 -0.017752,0.00458661 -0.0266575,0.00680315 -0.00659843,0.00164173 -0.0132008,0.00329134 -0.0198189,0.00487402 -0.0134449,0.00322047 -0.0269213,0.0063189 -0.0404213,0.00929528 -0.00631102,0.0013937 -0.0126378,0.0027126 -0.0189606,0.00405512 -0.0100197,0.00212205 -0.0200551,0.00417717 -0.0301024,0.00616929 -0.00576378,0.00114173 -0.0115236,0.0023189 -0.0172992,0.00341732 -0.0138898,0.00264567 -0.0278189,0.0051378 -0.0417559,0.0075315 -0.00627953,0.0010748 -0.012563,0.00209843 -0.0188504,0.00312598 -0.0109331,0.00178346 -0.021878,0.00348425 -0.0328386,0.00511024 -0.00605906,0.000897638 -0.012122,0.00180709 -0.018189,0.00266142 -0.0130748,0.00183858 -0.0261654,0.00355118 -0.0392756,0.00516142 -0.006,0.000740157 -0.0120039,0.00145669 -0.0180079,0.00214567 -0.0132874,0.00153543 -0.0265827,0.00296457 -0.0399016,0.00427165 -0.00562205,0.000547244 -0.011252,0.00104331 -0.0168819,0.00155512 -0.0115906,0.00104724 -0.0231969,0.00200787 -0.0348071,0.00288189 -0.00606693,0.00046063 -0.0121378,0.000909449 -0.0182047,0.0013189 -0.0145079,0.000976378 -0.0290276,0.00184646 -0.0435669,0.00255512 -0.00518898,0.000251969 -0.0103858,0.00042126 -0.0155827,0.000641732 -0.011185,0.000468504 -0.0223661,0.000850394 -0.0335669,0.00116142 -0.00566142,0.000153543 -0.0113189,0.000334646 -0.0169843,0.000444882 -0.0148228,0.000295276 -0.0296457,0.000444882 -0.0444843,0.000456693 -0.00498031,3.93701e-006 -0.00997244,-4.33071e-005 -0.0149488,-7.08661e-005 -0.0124921,-7.08661e-005 -0.0249961,-0.000240157 -0.0374961,-0.000515748 -0.00427559,-9.05512e-005 -0.00853937,-0.000149606 -0.012811,-0.000267717 -0.0152677,-0.000417323 -0.0305433,-0.00102362 -0.0458189,-0.00174409 -0.00500787,-0.000240157 -0.0100157,-0.000511811 -0.0150276,-0.000779528 -0.0140079,-0.000755906 -0.0280197,-0.00161024 -0.0420354,-0.00262205 -0.00233465,-0.000169291 -0.00467323,-0.000295276 -0.00700394,-0.000472441 -0.0158543,-0.00119291 -0.0317008,-0.00261024 -0.0475512,-0.00413386 -0.00464567,-0.000444882 -0.00929528,-0.000905512 -0.0139409,-0.00138189 -0.0156929,-0.00160236 -0.031378,-0.00331102 -0.047063,-0.00524016 -0.00312992,-0.000385827 -0.00626378,-0.000830709 -0.0093937,-0.00122835 -0.0136417,-0.00173622 -0.0272638,-0.0036063 -0.0408898,-0.00558661 -0.00447638,-0.000653543 -0.00895669,-0.00129528 -0.0134331,-0.00197244 -0.0156929,-0.00237795 -0.0313661,-0.00490157 -0.0470354,-0.0076063 -0.00364173,-0.000629921 -0.00727953,-0.00131496 -0.0109213,-0.00196063 -0.0136654,-0.0024252 -0.027311,-0.00498031 -0.0409606,-0.00765748 -0.00364567,-0.000720472 -0.00729921,-0.00140551 -0.0109449,-0.00214173 -0.0156772,-0.00316142 -0.0313386,-0.00650394 -0.0469882,-0.00999213 -0.0043937,-0.000984252 -0.0087874,-0.00200394 -0.0131772,-0.00301181 -0.0135984,-0.00312205 -0.0271732,-0.0063622 -0.0407402,-0.00973622 -0.00299213,-0.000744094 -0.00598425,-0.00144488 -0.00897638,-0.00220472 -0.0160118,-0.00404724 -0.0319921,-0.0083189 -0.0479567,-0.0127244 -0.0037874,-0.00104331 -0.0075748,-0.00211417 -0.0113543,-0.0031811 -0.0157441,-0.00443307 -0.0314685,-0.00899606 -0.0471575,-0.0137756l-0.00206299 -0.000614173c-0.0159409,-0.00487402 -0.0318465,-0.0100039 -0.0477283,-0.0152402 -0.00424016,-0.00139764 -0.00847638,-0.00280315 -0.0127165,-0.00422441 -0.0157441,-0.00529134 -0.0314528,-0.0107283 -0.0471299,-0.016374 -0.00214567,-0.000775591 -0.0042874,-0.00159055 -0.00643307,-0.00237008 -0.0144567,-0.00525984 -0.0288819,-0.0106969 -0.0432756,-0.0162598l-0.0103386 -0.00400394c-0.0160118,-0.00627953 -0.0319764,-0.0127323 -0.0479055,-0.0193898 -0.0023189,-0.000968504 -0.00463386,-0.00197638 -0.00695669,-0.00295669 -0.0141496,-0.0059685 -0.0282559,-0.0121102 -0.0423386,-0.018378 -0.00324409,-0.00144488 -0.00649606,-0.0028622 -0.00974016,-0.00432677 -0.0153465,-0.00691339 -0.0306378,-0.0140472 -0.0458937,-0.0213268 -0.00359843,-0.00172047 -0.00718898,-0.00347244 -0.0107874,-0.0052126 -0.0140039,-0.00677165 -0.0279646,-0.0136969 -0.0418898,-0.0207717 -0.0020748,-0.00105118 -0.00415748,-0.00207874 -0.00622835,-0.00314173 -0.0154449,-0.00789764 -0.030811,-0.0160591 -0.0461457,-0.0243504 -0.00350787,-0.0018937 -0.00700787,-0.0038189 -0.0105118,-0.00573228 -0.0155748,-0.00850787 -0.0311142,-0.0171654 -0.0465669,-0.0260906 -1.10846,-0.639965 -1.48839,-2.05788 -0.848413,-3.16634 0.00991339,-0.0171654 0.0200236,-0.0341575 0.0302992,-0.0509724 0.00249606,-0.00408268 0.00509449,-0.00805906 0.00761024,-0.0121142 0.00778346,-0.012563 0.0155827,-0.0251063 0.0235709,-0.0374724 0.00411417,-0.00637008 0.00836614,-0.0126024 0.0125394,-0.0189173 0.00653937,-0.00990945 0.0130472,-0.0198622 0.0197165,-0.0296417 0.00459449,-0.00673622 0.00932677,-0.0133346 0.0139764,-0.0200079 0.0064685,-0.00927559 0.0128976,-0.0185787 0.0194764,-0.0277323 0.00465748,-0.00647244 0.00943307,-0.012815 0.0141457,-0.0192244 0.00675591,-0.00918898 0.0134764,-0.0184094 0.0203504,-0.0274724 0.00484252,-0.0063937 0.00980709,-0.0126654 0.0147165,-0.019 0.00682677,-0.0088189 0.0136299,-0.0176654 0.0205669,-0.0263583 0.00526378,-0.00660236 0.0106378,-0.0130709 0.0159646,-0.0196024 0.00674803,-0.00827165 0.0134724,-0.0165669 0.0203189,-0.0247244 0.0056063,-0.00668504 0.0113189,-0.013248 0.0169961,-0.0198504 0.00670079,-0.00780315 0.013374,-0.0156339 0.0201654,-0.0233307 0.00595669,-0.00675197 0.0120197,-0.0133858 0.0180394,-0.0200551 0.00666929,-0.00738583 0.0133228,-0.0147913 0.0200748,-0.0220709 0.00618898,-0.0066811 0.0124685,-0.0132441 0.0187283,-0.0198386 0.00675591,-0.00711811 0.0135039,-0.0142559 0.0203425,-0.0212756 0.00639764,-0.00657087 0.012878,-0.0130276 0.0193386,-0.0195079 0.00681102,-0.00682677 0.0136181,-0.0136693 0.0205039,-0.0204016 0.00662992,-0.00648031 0.0133346,-0.0128543 0.0200276,-0.0192441 0.00690551,-0.00658661 0.0138031,-0.0131772 0.0207756,-0.0196693 0.00684646,-0.00637008 0.0137677,-0.0126496 0.0206811,-0.0189291 0.00684646,-0.00622835 0.0137047,-0.0124449 0.020622,-0.0185787 0.00718504,-0.00636614 0.0144331,-0.0126417 0.021685,-0.0189134 0.00692126,-0.00598031 0.0138465,-0.0119567 0.0208268,-0.0178504 0.00717323,-0.00605118 0.0144016,-0.0120197 0.0216378,-0.0179764 0.0071811,-0.00590551 0.014374,-0.0118031 0.0216181,-0.0176181 0.00734646,-0.00589764 0.0147402,-0.0117126 0.0221535,-0.0175197 0.00714173,-0.00558661 0.0142913,-0.0111575 0.0214882,-0.0166535 0.00768504,-0.00587008 0.0154134,-0.0116732 0.0231575,-0.017437 0.00705906,-0.00525197 0.0141299,-0.0104724 0.0212402,-0.0156378 0.0079252,-0.00575984 0.0158898,-0.0114528 0.023874,-0.0171063 0.0071063,-0.00502756 0.0142402,-0.0100157 0.0213976,-0.0149606 0.00814567,-0.00562598 0.0163268,-0.011189 0.0245315,-0.0167047 0.00698425,-0.00469291 0.0139882,-0.00934252 0.0210197,-0.0139528 0.00855118,-0.0056063 0.017126,-0.0111614 0.0257441,-0.0166496 0.00685433,-0.00437008 0.0137362,-0.00869291 0.0206339,-0.0129843 0.00870472,-0.00541732 0.017437,-0.0107874 0.0262008,-0.0160827 0.0070315,-0.00424803 0.0140984,-0.00844488 0.0211693,-0.0126102 0.00883858,-0.0052126 0.0176969,-0.0103819 0.0265984,-0.0154724 0.00689764,-0.00394882 0.0138228,-0.00782677 0.0207598,-0.0117008 0.00919291,-0.00513386 0.0184094,-0.0102283 0.0276614,-0.0152323 0.00683858,-0.00369685 0.0137126,-0.00732283 0.0205827,-0.0109528 0.00940945,-0.00496457 0.0188386,-0.00989764 0.0283071,-0.0147323 0.00659449,-0.0033622 0.0132205,-0.00665354 0.0198465,-0.00995276 0.00999213,-0.00498031 0.0200039,-0.00992913 0.0300669,-0.0147598 0.00612598,-0.00294094 0.0122874,-0.00581102 0.0184409,-0.00870079 0.0104921,-0.00492913 0.021,-0.00982677 0.0315591,-0.0145945 0.00577165,-0.0026063 0.0115748,-0.00513386 0.0173701,-0.00769685 0.0111142,-0.00490551 0.0222402,-0.00978346 0.0334213,-0.0145118 0.0053937,-0.00228346 0.010811,-0.00448031 0.0162205,-0.00672441 0.0113622,-0.00470472 0.0227323,-0.00938189 0.0341575,-0.0139055 0.00535433,-0.00212205 0.0107402,-0.00416142 0.0161063,-0.00623622 0.0119961,-0.00464567 0.0240079,-0.00925984 0.0360787,-0.0137047 0.00406299,-0.00149606 0.00814961,-0.00292126 0.0122205,-0.00438976 0.0130945,-0.00474016 0.0262008,-0.00942913 0.039374,-0.0139291 0.00366535,-0.00125591 0.00735827,-0.00243701 0.0110276,-0.00366929 0.0137205,-0.00461417 0.0274606,-0.00916929 0.0412638,-0.0135276 0.00284252,-0.000897638 0.00570079,-0.00173228 0.00853937,-0.00261811 0.0144646,-0.00450787 0.0289409,-0.00892913 0.0434843,-0.0131496 0.00255118,-0.000740157 0.00512598,-0.00142126 0.0076811,-0.00215354 0.275024,-0.0788071 0.564382,-0.106976 0.852839,-0.0804213l0.00188976 0.000169291c0.0176378,0.0016378 0.0352835,0.00349213 0.0529134,0.00553937l0.0016378 0.000181102c0.0175551,0.00205512 0.0350984,0.00432677 0.0526339,0.00679134l0.00210236 0.000283465c0.0173701,0.00245669 0.0347283,0.00512992 0.0520787,0.00798819l0.00261417 0.00042126c0.0171142,0.00284252 0.0342205,0.00589764 0.0513031,0.00912992l0.00344882 0.000641732c0.0171181,0.00326378 0.0342087,0.00674016 0.0512835,0.0104055l0.00280315 0.000594488c0.0171339,0.00370079 0.034248,0.00761024 0.0513425,0.0117087l0.00293701 0.000704724c0.0169528,0.00409055 0.0338819,0.00838976 0.0507835,0.012878l0.00352362 0.000933071c0.0166535,0.00444882 0.0332717,0.00910236 0.0498661,0.0139409l0.00446063 0.00130315c0.0165079,0.00485039 0.0329921,0.0098937 0.049437,0.015126l0.00398425 0.00127559c0.0166654,0.00533858 0.0332992,0.0108701 0.0498937,0.0166063l0.0031378 0.00109055c0.0166496,0.00577953 0.0332677,0.0117677 0.0498425,0.0179488l0.00362598 0.00136614c0.0163858,0.00614567 0.0327283,0.0124843 0.0490394,0.0190236l0.00416142 0.00168898c0.0164173,0.00662205 0.0327953,0.0134449 0.049126,0.0204724l0.00247244 0.00107087c0.0167087,0.00720866 0.033374,0.0146378 0.0499843,0.0222717l0.00197244 0.000917323c0.0168346,0.00776378 0.0336339,0.015748 0.0503583,0.0239488l0.000724409 0.000358268c0.0170669,0.00837402 0.034063,0.0169685 0.0510039,0.025811z"/>
  <path class="fil4 str4" d="M4 2.91246l0 0.310689c-0.385094,-0.319406 -0.879575,-0.51148 -1.41886,-0.51148 -1.22817,0 -2.22417,0.996008 -2.22417,2.22417 0,0.385472 0.0981496,0.748039 0.270756,1.06416l-0.2775 0c-0.154063,-0.322311 -0.240386,-0.683154 -0.240386,-1.06416 0,-1.36463 1.10667,-2.4713 2.4713,-2.4713 0.527984,0 1.01727,0.165756 1.41886,0.447921z"/>
 </g>
<metadata><rdf:RDF><cc:Work><dc:format>image/svg+xml</dc:format><dc:type rdf:resource="http://purl.org/dc/dcmitype/StillImage"/><cc:license rdf:resource="http://creativecommons.org/licenses/publicdomain/"/><dc:publisher><cc:Agent rdf:about="http://openclipart.org/"><dc:title>Open Clip Art Library</dc:title></cc:Agent></dc:publisher><dc:title>nice background</dc:title><dc:date>2010-05-29T18:27:32</dc:date><dc:description/><dc:source>http://openclipart.org/detail/63625/nice-background-by-windsfong</dc:source><dc:creator><cc:Agent><dc:title>windsfong</dc:title></cc:Agent></dc:creator><dc:subject><rdf:Bag><rdf:li>clip art</rdf:li><rdf:li>clipart</rdf:li><rdf:li>nice background</rdf:li></rdf:Bag></dc:subject></cc:Work><cc:License rdf:about="http://creativecommons.org/licenses/publicdomain/"><cc:permits rdf:resource="http://creativecommons.org/ns#Reproduction"/><cc:permits rdf:resource="http://creativecommons.org/ns#Distribution"/><cc:permits rdf:resource="http://creativecommons.org/ns#DerivativeWorks"/></cc:License></rdf:RDF></metadata></svg>
