<?xml version="1.0" encoding="UTF-8" standalone="no"?>
<!-- Created with Inkscape (http://www.inkscape.org/) -->

<svg
   xmlns:dc="http://purl.org/dc/elements/1.1/"
   xmlns:cc="http://creativecommons.org/ns#"
   xmlns:rdf="http://www.w3.org/1999/02/22-rdf-syntax-ns#"
   xmlns:svg="http://www.w3.org/2000/svg"
   xmlns="http://www.w3.org/2000/svg"
   xmlns:sodipodi="http://sodipodi.sourceforge.net/DTD/sodipodi-0.dtd"
   xmlns:inkscape="http://www.inkscape.org/namespaces/inkscape"
   version="1.1"
   id="svg883"
   xml:space="preserve"
   width="816"
   height="1056"
   viewBox="0 0 816 1056"
   sodipodi:docname="abstract-102-stars-freesvg.org.svg"
   inkscape:version="0.92.4 (5da689c313, 2019-01-14)"><metadata
     id="metadata889"><rdf:RDF><cc:Work
         rdf:about=""><dc:format>image/svg+xml</dc:format><dc:type
           rdf:resource="http://purl.org/dc/dcmitype/StillImage" /><dc:title /></cc:Work></rdf:RDF></metadata><defs
     id="defs887"><clipPath
       clipPathUnits="userSpaceOnUse"
       id="clipPath899"><path
         d="M 0,792 H 612 V 0 H 0 Z"
         id="path897"
         inkscape:connector-curvature="0" /></clipPath></defs><sodipodi:namedview
     pagecolor="#ffffff"
     bordercolor="#666666"
     borderopacity="1"
     objecttolerance="10"
     gridtolerance="10"
     guidetolerance="10"
     inkscape:pageopacity="0"
     inkscape:pageshadow="2"
     inkscape:window-width="1920"
     inkscape:window-height="1018"
     id="namedview885"
     showgrid="false"
     inkscape:zoom="0.47081547"
     inkscape:cx="304.12097"
     inkscape:cy="454.16949"
     inkscape:window-x="-8"
     inkscape:window-y="-8"
     inkscape:window-maximized="1"
     inkscape:current-layer="g891" /><g
     id="g891"
     inkscape:groupmode="layer"
     inkscape:label="abstract-102-publicdomainvectors.org [Converted]"
     transform="matrix(1.3333333,0,0,-1.3333333,0,1056)"><g
       id="g893"><g
         id="g895"
         clip-path="url(#clipPath899)"><path
           d="M 612.285,-0.757 H 0.391 v 792 h 611.894 z"
           style="fill:#1d527d;fill-opacity:1;fill-rule:nonzero;stroke:none"
           id="path901"
           inkscape:connector-curvature="0" /><path
           d="m 515.998,791.488 c 2.409,-7.414 5.049,-15.538 5.049,-15.538 h 28.892 l -23.375,-16.983 8.93,-27.479 -23.377,16.983 -23.373,-16.983 8.926,27.479 -23.375,16.983 h 28.894 c 0,0 2.641,8.124 5.049,15.538 z"
           style="fill:#ffffff;fill-opacity:1;fill-rule:nonzero;stroke:none"
           id="path903"
           inkscape:connector-curvature="0" /><path
           d="m 358.187,791.488 c 2.409,-7.414 5.047,-15.538 5.047,-15.538 h 28.895 l -23.375,-16.983 8.928,-27.479 -23.375,16.983 -23.375,-16.983 8.927,27.479 -23.375,16.983 h 28.893 c 0,0 2.641,8.124 5.05,15.538 z"
           style="fill:#ffffff;fill-opacity:1;fill-rule:nonzero;stroke:none"
           id="path905"
           inkscape:connector-curvature="0" /><path
           d="m 200.375,791.488 c 2.408,-7.414 5.048,-15.538 5.048,-15.538 h 28.894 l -23.376,-16.983 8.929,-27.479 -23.376,16.983 -23.374,-16.983 8.928,27.479 -23.376,16.983 h 28.894 c 0,0 2.64,8.124 5.049,15.538 z"
           style="fill:#ffffff;fill-opacity:1;fill-rule:nonzero;stroke:none"
           id="path907"
           inkscape:connector-curvature="0" /><path
           d="m 42.563,791.488 c 2.409,-7.414 5.048,-15.538 5.048,-15.538 H 76.506 L 53.129,758.967 62.059,731.488 38.683,748.471 15.308,731.488 24.236,758.967 0.86,775.95 h 28.894 c 0,0 2.641,8.124 5.049,15.538 z"
           style="fill:#ffffff;fill-opacity:1;fill-rule:nonzero;stroke:none"
           id="path909"
           inkscape:connector-curvature="0" /><path
           d="m 574.207,707.707 8.93,-27.478 h 28.892 l -23.375,-16.985 8.93,-27.478 -23.377,16.982 -23.373,-16.982 8.926,27.478 -23.375,16.985 h 28.894 z"
           style="fill:#ffffff;fill-opacity:1;fill-rule:nonzero;stroke:none"
           id="path911"
           inkscape:connector-curvature="0" /><path
           d="m 416.396,707.707 8.928,-27.478 h 28.895 l -23.375,-16.985 8.927,-27.478 -23.375,16.982 -23.375,-16.982 8.928,27.478 -23.375,16.985 h 28.893 z"
           style="fill:#ffffff;fill-opacity:1;fill-rule:nonzero;stroke:none"
           id="path913"
           inkscape:connector-curvature="0" /><path
           d="m 258.584,707.707 8.929,-27.478 h 28.894 l -23.376,-16.985 8.929,-27.478 -23.376,16.982 -23.374,-16.982 8.928,27.478 -23.376,16.985 h 28.894 z"
           style="fill:#ffffff;fill-opacity:1;fill-rule:nonzero;stroke:none"
           id="path915"
           inkscape:connector-curvature="0" /><path
           d="m 100.772,707.707 8.929,-27.478 h 28.895 l -23.377,-16.985 8.929,-27.478 -23.376,16.982 -23.374,-16.982 8.928,27.478 -23.375,16.985 h 28.893 z"
           style="fill:#ffffff;fill-opacity:1;fill-rule:nonzero;stroke:none"
           id="path917"
           inkscape:connector-curvature="0" /><path
           d="m 612.285,574.473 c -6.457,4.691 -13.81,10.033 -13.81,10.033 h 13.81 z"
           style="fill:#ffffff;fill-opacity:1;fill-rule:nonzero;stroke:none"
           id="path919"
           inkscape:connector-curvature="0" /><path
           d="m 478.486,611.986 8.928,-27.48 h 28.895 l -23.375,-16.983 8.927,-27.479 -23.375,16.983 -23.375,-16.983 8.928,27.479 -23.375,16.983 h 28.893 z"
           style="fill:#ffffff;fill-opacity:1;fill-rule:nonzero;stroke:none"
           id="path921"
           inkscape:connector-curvature="0" /><path
           d="m 320.674,611.986 8.928,-27.48 h 28.894 l -23.375,-16.983 8.93,-27.479 -23.377,16.983 -23.374,-16.983 8.928,27.479 -23.375,16.983 h 28.893 z"
           style="fill:#ffffff;fill-opacity:1;fill-rule:nonzero;stroke:none"
           id="path923"
           inkscape:connector-curvature="0" /><path
           d="m 162.862,611.986 8.929,-27.48 h 28.895 l -23.376,-16.983 8.928,-27.479 -23.376,16.983 -23.374,-16.983 8.928,27.479 -23.375,16.983 h 28.893 z"
           style="fill:#ffffff;fill-opacity:1;fill-rule:nonzero;stroke:none"
           id="path925"
           inkscape:connector-curvature="0" /><path
           d="m 0.286,597.32 c 2.327,7.164 4.765,14.666 4.765,14.666 l 8.928,-27.48 H 42.873 L 19.498,567.523 28.426,540.044 5.051,557.027 c 0,0 -1.97,-1.431 -4.765,-3.463 z"
           style="fill:#ffffff;fill-opacity:1;fill-rule:nonzero;stroke:none"
           id="path927"
           inkscape:connector-curvature="0" /><path
           d="m 540.576,516.264 8.928,-27.48 h 28.894 l -23.375,-16.983 8.928,-27.479 -23.375,16.983 -23.375,-16.983 8.928,27.479 -23.375,16.983 h 28.892 z"
           style="fill:#ffffff;fill-opacity:1;fill-rule:nonzero;stroke:none"
           id="path929"
           inkscape:connector-curvature="0" /><path
           d="m 382.764,516.264 8.927,-27.48 h 28.895 l -23.375,-16.983 8.93,-27.479 -23.377,16.983 -23.375,-16.983 8.927,27.479 -23.375,16.983 h 28.895 z"
           style="fill:#ffffff;fill-opacity:1;fill-rule:nonzero;stroke:none"
           id="path931"
           inkscape:connector-curvature="0" /><path
           d="m 224.953,516.264 8.928,-27.48 h 28.894 l -23.376,-16.983 8.929,-27.479 -23.375,16.983 -23.375,-16.983 8.928,27.479 -23.375,16.983 h 28.892 z"
           style="fill:#ffffff;fill-opacity:1;fill-rule:nonzero;stroke:none"
           id="path933"
           inkscape:connector-curvature="0" /><path
           d="m 67.141,516.264 8.927,-27.48 h 28.895 l -23.375,-16.983 8.928,-27.479 -23.375,16.983 -23.375,-16.983 8.927,27.479 -23.375,16.983 h 28.894 z"
           style="fill:#ffffff;fill-opacity:1;fill-rule:nonzero;stroke:none"
           id="path935"
           inkscape:connector-curvature="0" /><path
           d="m 612.285,358.594 c -5.078,3.69 -9.619,6.989 -9.619,6.989 l -23.375,-16.983 8.928,27.479 -23.375,16.984 h 28.892 l 8.93,27.479 8.928,-27.479 h 0.691 z"
           style="fill:#ffffff;fill-opacity:1;fill-rule:nonzero;stroke:none"
           id="path937"
           inkscape:connector-curvature="0" /><path
           d="m 444.854,420.542 8.929,-27.479 h 28.893 l -23.375,-16.984 8.929,-27.479 -23.376,16.983 -23.375,-16.983 8.927,27.479 -23.375,16.984 h 28.895 z"
           style="fill:#ffffff;fill-opacity:1;fill-rule:nonzero;stroke:none"
           id="path939"
           inkscape:connector-curvature="0" /><path
           d="m 287.042,420.542 8.929,-27.479 h 28.894 l -23.376,-16.984 8.929,-27.479 -23.376,16.983 -23.374,-16.983 8.928,27.479 -23.375,16.984 h 28.893 z"
           style="fill:#ffffff;fill-opacity:1;fill-rule:nonzero;stroke:none"
           id="path941"
           inkscape:connector-curvature="0" /><path
           d="m 129.23,420.542 8.929,-27.479 h 28.894 l -23.375,-16.984 8.927,-27.479 -23.375,16.983 -23.375,-16.983 8.928,27.479 -23.375,16.984 h 28.895 z"
           style="fill:#ffffff;fill-opacity:1;fill-rule:nonzero;stroke:none"
           id="path943"
           inkscape:connector-curvature="0" /><path
           d="m 0.286,393.063 h 8.955 c 0,0 -4.151,-3.017 -8.955,-6.507 z"
           style="fill:#ffffff;fill-opacity:1;fill-rule:nonzero;stroke:none"
           id="path945"
           inkscape:connector-curvature="0" /><path
           d="m 506.943,324.82 8.93,-27.479 h 28.893 l -23.375,-16.984 8.929,-27.479 -23.377,16.982 -23.375,-16.982 8.928,27.479 -23.375,16.984 h 28.895 z"
           style="fill:#ffffff;fill-opacity:1;fill-rule:nonzero;stroke:none"
           id="path947"
           inkscape:connector-curvature="0" /><path
           d="m 349.131,324.82 8.93,-27.479 h 28.892 l -23.373,-16.984 8.928,-27.479 -23.377,16.982 -23.373,-16.982 8.926,27.479 -23.373,16.984 h 28.892 z"
           style="fill:#ffffff;fill-opacity:1;fill-rule:nonzero;stroke:none"
           id="path949"
           inkscape:connector-curvature="0" /><path
           d="m 191.32,324.82 8.929,-27.479 h 28.894 l -23.375,-16.984 8.927,-27.479 -23.375,16.982 -23.375,-16.982 8.928,27.479 -23.375,16.984 h 28.895 z"
           style="fill:#ffffff;fill-opacity:1;fill-rule:nonzero;stroke:none"
           id="path951"
           inkscape:connector-curvature="0" /><path
           d="M 0.286,297.341 H 24.58 l 8.928,27.479 8.93,-27.479 h 28.893 l -23.376,-16.984 8.929,-27.479 -23.376,16.982 -23.374,-16.982 8.928,27.479 c 0,0 -11.967,8.695 -18.776,13.642 z"
           style="fill:#ffffff;fill-opacity:1;fill-rule:nonzero;stroke:none"
           id="path953"
           inkscape:connector-curvature="0" /><path
           d="m 569.033,229.098 8.93,-27.479 h 28.892 l -23.375,-16.984 8.93,-27.479 -23.377,16.983 -23.375,-16.983 8.928,27.479 -23.375,16.984 h 28.894 z"
           style="fill:#ffffff;fill-opacity:1;fill-rule:nonzero;stroke:none"
           id="path955"
           inkscape:connector-curvature="0" /><path
           d="m 411.223,229.098 8.927,-27.479 h 28.893 l -23.373,-16.984 8.928,-27.479 -23.375,16.983 -23.375,-16.983 8.925,27.479 -23.373,16.984 h 28.893 z"
           style="fill:#ffffff;fill-opacity:1;fill-rule:nonzero;stroke:none"
           id="path957"
           inkscape:connector-curvature="0" /><path
           d="m 253.41,229.098 8.929,-27.479 h 28.894 l -23.376,-16.984 8.928,-27.479 -23.375,16.983 -23.375,-16.983 8.929,27.479 -23.376,16.984 h 28.893 z"
           style="fill:#ffffff;fill-opacity:1;fill-rule:nonzero;stroke:none"
           id="path959"
           inkscape:connector-curvature="0" /><path
           d="m 95.599,229.098 8.928,-27.479 h 28.895 l -23.377,-16.984 8.929,-27.479 -23.375,16.983 -23.375,-16.983 8.927,27.479 -23.375,16.984 H 86.67 Z"
           style="fill:#ffffff;fill-opacity:1;fill-rule:nonzero;stroke:none"
           id="path961"
           inkscape:connector-curvature="0" /><path
           d="m 612.285,92.104 c -6.769,4.918 -18.984,13.793 -18.984,13.793 h 18.984 z"
           style="fill:#ffffff;fill-opacity:1;fill-rule:nonzero;stroke:none"
           id="path963"
           inkscape:connector-curvature="0" /><path
           d="m 612.285,64.73 c -2.674,-1.942 -4.537,-3.295 -4.537,-3.295 0,0 2.281,7.02 4.537,13.964 z"
           style="fill:#ffffff;fill-opacity:1;fill-rule:nonzero;stroke:none"
           id="path965"
           inkscape:connector-curvature="0" /><path
           d="m 473.313,133.376 8.927,-27.479 h 28.895 l -23.375,-16.984 8.928,-27.478 -23.375,16.982 -23.375,-16.982 8.925,27.478 -23.373,16.984 h 28.893 z"
           style="fill:#ffffff;fill-opacity:1;fill-rule:nonzero;stroke:none"
           id="path967"
           inkscape:connector-curvature="0" /><path
           d="m 315.5,133.376 8.928,-27.479 h 28.894 L 329.947,88.913 338.875,61.435 315.5,78.417 292.126,61.435 l 8.928,27.478 -23.376,16.984 h 28.894 z"
           style="fill:#ffffff;fill-opacity:1;fill-rule:nonzero;stroke:none"
           id="path969"
           inkscape:connector-curvature="0" /><path
           d="m 157.688,133.376 8.929,-27.479 h 28.895 l -23.377,-16.984 8.928,-27.478 -23.375,16.982 -23.375,-16.982 8.929,27.478 -23.376,16.984 h 28.894 z"
           style="fill:#ffffff;fill-opacity:1;fill-rule:nonzero;stroke:none"
           id="path971"
           inkscape:connector-curvature="0" /><path
           d="m 0.286,132.117 c 1.75,-5.388 8.519,-26.22 8.519,-26.22 H 37.699 L 14.323,88.913 23.252,61.435 c 0,0 -19.851,14.421 -22.966,16.685 z"
           style="fill:#ffffff;fill-opacity:1;fill-rule:nonzero;stroke:none"
           id="path973"
           inkscape:connector-curvature="0" /><path
           d="m 511.248,0.243 c -6.422,4.667 -13.668,9.932 -13.668,9.932 h 28.893 l 8.929,27.479 8.928,-27.479 h 28.895 c 0,0 -7.246,-5.265 -13.67,-9.932 z"
           style="fill:#ffffff;fill-opacity:1;fill-rule:nonzero;stroke:none"
           id="path975"
           inkscape:connector-curvature="0" /><path
           d="m 353.438,0.243 c -6.424,4.667 -13.67,9.932 -13.67,9.932 h 28.894 l 8.928,27.479 8.928,-27.479 h 28.894 c 0,0 -7.246,-5.265 -13.668,-9.932 z"
           style="fill:#ffffff;fill-opacity:1;fill-rule:nonzero;stroke:none"
           id="path977"
           inkscape:connector-curvature="0" /><path
           d="m 195.625,0.243 c -6.424,4.667 -13.669,9.932 -13.669,9.932 h 28.894 l 8.928,27.479 8.929,-27.479 h 28.895 c 0,0 -7.247,-5.265 -13.67,-9.932 z"
           style="fill:#ffffff;fill-opacity:1;fill-rule:nonzero;stroke:none"
           id="path979"
           inkscape:connector-curvature="0" /><path
           d="M 37.813,0.243 C 31.39,4.91 24.144,10.175 24.144,10.175 h 28.894 l 8.929,27.479 8.928,-27.479 h 28.894 c 0,0 -7.245,-5.265 -13.668,-9.932 z"
           style="fill:#ffffff;fill-opacity:1;fill-rule:nonzero;stroke:none"
           id="path981"
           inkscape:connector-curvature="0" /></g></g></g></svg>